<svg xmlns="http://www.w3.org/2000/svg" viewBox="0 0 240 104"><g fill="none"><path fill="#F01446" d="M113.475 36.373c0 8.095 30.525 1.82 30.525 22.122C144 67.97 135.996 75 121.694 75c-8.542 0-16.793-2.706-22.261-7.292a1.216 1.216 0 0 1-.25-1.572l4.538-7.575a1.28 1.28 0 0 1 1.881-.335c4.006 3.17 10.9 5.465 16.733 5.465 5.87 0 8.645-2.052 8.645-4.476 0-8.857-30.632-1.886-30.632-22.027 0-8.626 7.578-16.188 21.132-16.188 8.264 0 14.91 2.658 19.848 6.362.496.369.637 1.05.329 1.584l-4.002 7.933a1.277 1.277 0 0 1-1.936.338c-3.27-2.789-8.531-4.77-14.131-4.77-4.911 0-8.113 1.651-8.113 3.926zM51.138 2c.476 0 .862.388.862.866v69.99a.858.858 0 0 1-.862.866H39.294a.86.86 0 0 1-.61-.254.868.868 0 0 1-.253-.612V67.99C34.465 72.345 29.133 75 23.149 75 10.364 75 0 62.91 0 47.99c0-14.918 10.364-27.009 23.149-27.009 5.99 0 11.315 2.655 15.282 7.01V2.866c0-.478.386-.866.863-.866h11.844zM25.992 63.653c6.84 0 12.39-6.954 12.439-15.554v-.23c-.05-8.6-5.598-15.555-12.44-15.555-6.87 0-12.44 7.013-12.44 15.668s5.57 15.67 12.44 15.67zm153.703-41.866c11.271 0 20.305 7.04 20.305 22.758v28.597a.856.856 0 0 1-.858.857h-11.8a.859.859 0 0 1-.86-.857l-.012-27.773c0-8.74-4.56-12.301-10.353-12.301-5.794 0-10.59 3.738-10.6 10.444v29.63a.858.858 0 0 1-.858.858h-11.8a.858.858 0 0 1-.859-.857V3.857c0-.473.385-.856.858-.857h11.801a.86.86 0 0 1 .859.857v24.815c3.146-4.268 7.943-6.885 14.177-6.885zM67.338 8.015C67.338 3.59 71.04 0 75.379 0c4.442 0 8.043 3.588 8.043 8.015 0 4.427-3.601 8.015-8.043 8.015-4.339 0-8.041-3.585-8.041-8.015zm23.438 52.651c.892-.497 1.366.371 1.186 1.128C90.117 69.351 83.475 74.954 75.55 75h-.097c-7.926-.047-14.567-5.649-16.413-13.206-.184-.757.29-1.625 1.181-1.128 5.432 3.148 11.267 3.99 15.278 3.984 4.012-.006 9.843-.836 15.278-3.984zm-3.217-19.08c.705-.393 1.08.292.933.89-1.458 5.968-6.702 10.39-12.959 10.427h-.077c-6.258-.036-11.501-4.46-12.96-10.428-.145-.597.23-1.282.934-.89 4.29 2.486 8.896 3.151 12.065 3.146 3.169-.005 7.773-.66 12.064-3.145zm-3.423-16.263c.504-.282.771.21.659.637-1.04 4.273-4.795 7.441-9.276 7.467h-.056c-4.474-.026-8.231-3.194-9.276-7.467-.103-.427.164-.919.668-.637 3.075 1.78 6.372 2.257 8.64 2.252 2.27-.004 5.568-.473 8.64-2.252zM205.375 71v.496h-.907V74h-.562v-2.508H203V71h2.375zm3.062 3l-.102-1.765c-.01-.232-.01-.519-.02-.838h-.032c-.072.264-.156.617-.24.893l-.508 1.666h-.587l-.51-1.71c-.051-.232-.135-.585-.197-.849h-.031c0 .275-.01.562-.02.838L206.087 74h-.541l.204-3h.843l.49 1.467c.062.231.115.452.187.76h.01c.073-.274.135-.529.204-.755l.481-1.472h.815l.219 3h-.563z"/><path fill="#000010" d="M14.314 100.551h-8.6L4.506 104H0l7.446-20h5.136L20 104h-4.474l-1.212-3.449zM6.81 96.864h6.378l-3.174-9.177-3.204 9.177zm23.549 4.924c-.947 1.12-2.612 2.212-4.878 2.212-3.043 0-4.481-1.758-4.481-4.605v-10.39h3.644v8.876c0 2.027 1.005 2.696 2.555 2.696 1.406 0 2.525-.818 3.157-1.667V89H34v14.636h-3.641v-1.848zm7.87-1.788v-7.636H36V89h2.23v-4h3.566v4h2.73v3.364h-2.73v6.605c0 .91.445 1.607 1.225 1.607.53 0 1.036-.212 1.227-.425l.752 2.91c-.53.514-1.476.939-2.953.939-2.48 0-3.818-1.395-3.818-4zm17.132-4.816c0-2.007-1.002-2.639-2.577-2.639-1.403 0-2.52.84-3.149 1.71V104H46V84h3.637v7.406c.887-1.109 2.605-2.25 4.867-2.25 3.036 0 4.496 1.74 4.496 4.559V104h-3.64v-8.816zM61 96.485C61 92.432 63.818 89 68.485 89 73.177 89 76 92.432 76 96.485c0 4.083-2.819 7.515-7.515 7.515-4.667 0-7.485-3.432-7.485-7.515zm11.125 0c0-2.218-1.32-4.142-3.64-4.142-2.32 0-3.61 1.924-3.61 4.142 0 2.248 1.29 4.172 3.61 4.172 2.319 0 3.64-1.924 3.64-4.172zM78 89.335h3.615v2.004C82.584 90.033 84.292 89 86 89v3.769a4.493 4.493 0 0 0-.996-.092c-1.196 0-2.79.7-3.387 1.64V104H78V89.334zm10-4.044c0-1.264.894-2.29 1.999-2.291 1.104 0 2 1.024 2.001 2.288 0 1.265-.894 2.291-1.998 2.293-1.101-.009-1.993-1.028-2.002-2.29zm.342 4.158h3.341V104H88.34l.003-14.551zm4.66 10.797l6.638-8.029H93V89h11.877v2.667l-6.73 8.116H105V103H93l.001-2.754zM114.113 89c4.098 0 6.886 3.197 6.886 7.872v.828h-10.215c.227 1.805 1.621 3.315 3.955 3.315 1.28 0 2.788-.533 3.67-1.42l1.594 2.425c-1.395 1.332-3.528 1.98-5.663 1.98-4.182 0-7.341-2.93-7.341-7.517 0-4.139 2.931-7.483 7.114-7.483zm-3.385 6.16h6.77c-.086-1.362-.996-3.167-3.385-3.167-2.248-.004-3.216 1.742-3.386 3.163v.004zm22.62 6.69c-1.083 1.384-2.593 2.15-4.248 2.15-3.478 0-6.101-2.71-6.101-7.453 0-4.653 2.595-7.482 6.101-7.482 1.67-.005 3.244.803 4.248 2.18V84H137v19.646h-3.65v-1.797zm0-7.835c-.626-.943-1.907-1.62-3.136-1.62-2.052 0-3.478 1.678-3.478 4.152 0 2.446 1.426 4.124 3.478 4.124 1.226 0 2.51-.678 3.136-1.62v-5.036zm20.943 2.819h-3.084V104H147V84h9.245c4.118 0 6.636 2.729 6.636 6.446 0 3.538-2.192 5.428-4.325 5.937L163 104h-4.83l-3.878-7.166zm1.334-9.177h-4.415v5.518h4.415c1.688 0 2.963-1.079 2.963-2.759s-1.275-2.759-2.963-2.759zM170.114 89c4.097 0 6.886 3.197 6.886 7.872v.828h-10.215c.228 1.805 1.622 3.315 3.956 3.315 1.28 0 2.788-.533 3.67-1.42l1.594 2.425c-1.395 1.332-3.53 1.98-5.663 1.98-4.183 0-7.342-2.93-7.342-7.517 0-4.139 2.928-7.483 7.114-7.483zm-3.385 6.16h6.77c-.085-1.362-.996-3.167-3.385-3.167-2.248-.004-3.216 1.742-3.386 3.163l.001.004zm13.5 4.84v-7.636H178V89h2.23v-4h3.566v4h2.73v3.364h-2.73v6.605c0 .91.445 1.607 1.225 1.607.53 0 1.036-.212 1.227-.425l.752 2.91c-.53.514-1.476.939-2.953.939-2.478 0-3.818-1.395-3.818-4zm16.086 2.165c-.958 1.154-2.612 1.835-4.44 1.835-2.234 0-4.875-1.54-4.875-4.731 0-3.345 2.64-4.559 4.876-4.559 1.856 0 3.51.592 4.439 1.747v-1.98c0-1.451-1.219-2.398-3.076-2.398-1.51 0-2.901.562-4.091 1.686l-1.393-2.515c1.712-1.54 3.917-2.25 6.123-2.25 3.192 0 6.122 1.303 6.122 5.417v9.228h-3.685v-1.48zm0-3.73c-.61-.829-1.77-1.242-2.96-1.242-1.451 0-2.64.798-2.64 2.16 0 1.332 1.186 2.101 2.64 2.101 1.187 0 2.35-.414 2.96-1.243v-1.776zM203 85.29c0-.926.487-1.761 1.234-2.116.747-.355 1.608-.16 2.18.495.572.655.743 1.64.434 2.497-.31.855-1.039 1.414-1.848 1.414-1.1-.01-1.991-1.03-2-2.29zm.342 4.158h3.341V104h-3.34V89.449zM210 84h4v20h-4V84zm13.114 5c4.097 0 6.886 3.197 6.886 7.872v.828h-10.215c.227 1.805 1.621 3.315 3.955 3.315 1.28 0 2.788-.533 3.67-1.42l1.594 2.425c-1.395 1.332-3.528 1.98-5.663 1.98-4.182 0-7.341-2.93-7.341-7.517 0-4.139 2.931-7.483 7.114-7.483zm-3.385 6.16h6.77c-.086-1.362-.997-3.167-3.385-3.167-2.248-.004-3.216 1.742-3.386 3.163v.004zM232 89.334h3.616v2.005C236.583 90.033 238.292 89 240 89v3.769a4.494 4.494 0 0 0-.996-.092c-1.196 0-2.79.7-3.387 1.64V104H232V89.334z"/></g></svg>