<svg xmlns="http://www.w3.org/2000/svg" viewBox="0 0 300 49"><g fill="none" fill-rule="evenodd"><path fill="#D31245" fill-rule="nonzero" d="M187.141 12.316c12.482 0 20.424 5.537 18.62 14.285-1.803 8.748-12.047 14.293-24.52 14.293-12.475 0-20.416-5.537-18.613-14.293 1.804-8.756 12.04-14.285 24.521-14.285M182.182 34.1c5.165.142 7.91-2.587 9.491-7.27 1.511-4.366-.965-9.033-5.703-8.985-5.592.055-8.985 3.82-9.792 8.503-.578 3.354.324 7.586 5.972 7.752m29.56-21.144l12.078.048 11.327 14.958 3.551-15.006 11.335.048-5.687 27.202h-11.651L221.075 24.9l-3.228 15.172-11.849.134 5.711-27.25zm43.789.048H289.1l-1.163 5.529H266.96l-1.06 5.078h16.888l-1.155 5.53h-16.73l-1.154 5.536h20.233l-1.154 5.53H249.81l5.688-27.203zm40.68-.348c2.105 0 3.821 1.416 3.821 3.164 0 1.748-1.716 3.164-3.82 3.164-2.105 0-3.813-1.416-3.813-3.164 0-1.748 1.716-3.164 3.813-3.164zm0 5.75c1.74 0 3.164-1.162 3.164-2.594s-1.4-2.595-3.163-2.595c-1.764 0-3.164 1.163-3.164 2.595 0 1.432 1.407 2.594 3.164 2.594zm-1.463-4.413h1.685c1.044 0 1.535.387 1.535 1.083s-.451.934-1.045.99l1.14 1.526h-.839L296.1 16.12h-.585v1.472h-.79l-.009-3.6zm.791 1.582h.585c.49 0 1.037 0 1.037-.507 0-.506-.546-.514-1.037-.506h-.585v1.013z"/><path fill="#0054A4" d="M44.739 7.23C42.42 4.8 35.919 3.1 32.43 3.1c-8.488 0-14.088 4.383-14.088 9.936 0 5.141 5.284 9.491 14.088 9.491 4.319 0 8.883-1.004 11.129-3.045h6.138c-1.392 1.74-8.7 6.146-17.402 6.146-12.007 0-19.427-6.486-19.427-12.656C12.917 5.45 20.977 0 32.613 0 37.58 0 46.597 2.373 49.95 7.23h-5.21zM65.977.68l4.09-.087 16.08 24.434h-5.213l-5.307-8.092H60.242l-5.474 8.179h-4.935L65.977.68zm7.649 13.305l-5.822-9.563-5.79 9.492 11.612.07zM88.939.625h11.865c5.948 0 10.402 1.962 10.402 6.098 0 2.8-2.42 4.557-5.901 5.387v.063c4.113.206 7.396 2.8 7.396 6.075 0 4.374-5.363 6.795-12.04 6.795H88.94V.625zm4.643 10.14h6.328c3.528 0 6.384-1.004 6.384-3.662 0-1.93-1.693-3.583-5.419-3.583h-7.3l.007 7.245zm0 11.375h6.819c2.808 0 7.403-.688 7.403-4.137 0-2.895-2.855-4.343-7.356-4.343h-6.866v8.48zM116.814.625h4.216v21.31h14.254v3.108h-18.47V.625zm22.092 0h20.843v3.1h-16.468v7.278h15.321v3.1h-15.321v7.831h17.283v3.109h-21.658V.625zM0 36.67l157.866.697s-17.401 10.433-18.43 11.477C138.408 49.888 3.828 37.018 0 36.67"/><path fill="#D31245" d="M14.602 29.718l142.916.696s-17.401 10.433-18.43 11.477C138.06 42.935 18.43 30.058 14.602 29.718"/></g></svg>