<svg xmlns="http://www.w3.org/2000/svg" viewBox="0 0 300 64"><path d="M210.371 39.88c.336-.022.489.001.694.027l.214-1.754a4.895 4.895 0 0 0-.733-.06c-1.37 0-2.342.636-2.798 1.27v-1.071h-1.824v9.322h1.884v-6.108c.597-1.018 1.594-1.563 2.563-1.626zm57.306 0c.334-.021.488.002.693.028l.214-1.754a4.879 4.879 0 0 0-.734-.06c-1.369 0-2.34.635-2.797 1.27v-1.071h-1.824v9.322h1.884v-6.108c.597-1.018 1.593-1.563 2.564-1.627zm-10.82 7.932c-2.715 0-4.818-2.062-4.818-4.859 0-2.796 1.904-4.86 4.541-4.86 2.599 0 4.483 2.103 4.483 4.86 0 .08 0 .219-.02.397h-7.18a3.004 3.004 0 0 0 3.016 2.817c.88 0 1.494-.26 2.141-.701.403-.277.977-.3 1.302.134l.42.522c-.705.872-2.018 1.69-3.884 1.69zm-2.835-6.048h5.078c-.278-1.19-1.349-2.024-2.46-2.024-1.21 0-2.3.813-2.618 2.024zm-6.057-7.403l1.885-.748v14.002h-1.885V34.36zm-4.851 13.254h1.885v-9.322h-1.885v9.322zm-4.85-6.407a3.358 3.358 0 0 0-2.659-1.33c-1.805 0-2.995 1.449-2.995 3.075 0 1.666 1.29 3.074 3.094 3.074.952 0 1.924-.475 2.56-1.328v-3.49zm.059 5.553c-.755.675-1.765 1.051-2.877 1.051-.832 0-1.705-.237-2.34-.614-1.408-.833-2.38-2.38-2.38-4.245 0-1.864.992-3.43 2.4-4.264.635-.376 1.408-.595 2.281-.595 1.052 0 2.062.317 2.916 1.051v-.852h1.824v9.321h-1.824v-.853zm-21.271 1.051c-2.718 0-4.82-2.062-4.82-4.859 0-2.796 1.905-4.86 4.542-4.86 2.599 0 4.483 2.103 4.483 4.86 0 .08 0 .219-.02.397h-7.18a3.003 3.003 0 0 0 3.015 2.817c.88 0 1.495-.26 2.142-.701.403-.277.977-.3 1.302.134l.42.522c-.706.872-2.019 1.69-3.884 1.69zm-2.836-6.048h5.078c-.278-1.19-1.35-2.024-2.46-2.024-1.21 0-2.3.813-2.618 2.024zm15.158 5.85c-.357.12-.932.198-1.468.198-1.17 0-2.043-.416-2.638-1.09-.555-.615-.754-1.469-.754-2.48V39.98h-2.38v-1.686h2.38V35.3l1.885-.748v3.742h2.975v1.686h-2.975v4.363c0 .496.04.911.278 1.19.257.317.793.495 1.288.495.278 0 .754-.039 1.032-.118l.377 1.705zm68.742-26.512a3.362 3.362 0 0 0-2.66-1.329c-1.806 0-2.996 1.448-2.996 3.076 0 1.666 1.29 3.075 3.095 3.075.953 0 1.926-.476 2.56-1.329v-3.493zm.059 5.556c-.755.675-1.766 1.052-2.877 1.052-.834 0-1.707-.238-2.342-.615-1.41-.833-2.38-2.382-2.38-4.246a4.93 4.93 0 0 1 2.4-4.267c.635-.377 1.408-.595 2.282-.595 1.012 0 2.024.318 2.858 1.012V14.25l1.884-.748v14.009h-1.825v-.854zm-13.496 1.052c-2.718 0-4.82-2.064-4.82-4.861 0-2.798 1.904-4.862 4.543-4.862 2.599 0 4.485 2.103 4.485 4.862 0 .079 0 .218-.021.396h-7.183a3.005 3.005 0 0 0 3.017 2.818c.88 0 1.495-.26 2.143-.701.403-.276.976-.3 1.302.134l.42.522c-.706.873-2.02 1.692-3.886 1.692zm-2.837-6.053h5.08c-.278-1.19-1.35-2.023-2.46-2.023a2.71 2.71 0 0 0-2.62 2.023zm-6.023-1.785h-4.823v-1.686h7.442v1.19l-5.14 6.449h4.679c.473 0 .857.384.857.857v.83h-8.135v-1.19l5.12-6.45zm-8.992 7.64h1.886v-9.326h-1.886v9.326zM261.37 21.4v6.112h-1.885v-9.326h1.825v1.07c.456-.634 1.43-1.27 2.798-1.27.2 0 .516.02.735.061l-.214 1.754c-.205-.026-.359-.05-.694-.028-.97.064-1.968.609-2.565 1.627zm-8.862 4.524c1.727 0 2.937-1.37 2.937-3.075 0-1.707-1.21-3.076-2.937-3.076-1.726 0-2.937 1.369-2.937 3.076 0 1.706 1.21 3.075 2.937 3.075zm0-7.937c2.758 0 4.822 2.084 4.822 4.862s-2.064 4.86-4.822 4.86-4.821-2.082-4.821-4.86c0-2.778 2.063-4.862 4.82-4.862zm-7.972 9.525a.858.858 0 0 1-.857-.858v-4.242c0-1.755-.95-2.633-2.34-2.633-1.041 0-1.88.512-2.465 1.335v6.398h-1.885v-13.26l1.885-.75v5.6c.75-.694 1.734-1.115 2.922-1.115 2.23 0 3.767 1.682 3.767 4.096v5.429h-1.027zm-9.767 0c-.357.119-.932.198-1.47.198-1.17 0-2.042-.417-2.638-1.091-.556-.615-.753-1.469-.753-2.48v-4.267h-2.382v-1.686h2.382v-2.994l1.884-.75v3.744h2.977v1.686h-2.977v4.365c0 .497.04.913.279 1.191.258.318.793.496 1.29.496.277 0 .753-.04 1.03-.119l.378 1.707zm-10.86-9.33h1.884v9.326h-1.825v-.913c-.75.694-1.795 1.115-2.984 1.115-2.231 0-3.767-1.682-3.767-4.095v-5.432h1.028c.474 0 .857.384.857.857v4.245c0 1.755.95 2.633 2.339 2.633 1.043 0 1.882-.512 2.467-1.335v-6.4zm-11.21 2.92a3.362 3.362 0 0 0-2.66-1.329c-1.805 0-2.995 1.448-2.995 3.076 0 1.666 1.29 3.075 3.095 3.075.953 0 1.925-.476 2.56-1.329v-3.493zm.06 5.556c-.755.675-1.766 1.052-2.878 1.052-.833 0-1.707-.238-2.34-.615-1.41-.833-2.382-2.382-2.382-4.246a4.93 4.93 0 0 1 2.4-4.267c.635-.377 1.41-.595 2.282-.595 1.053 0 2.064.318 2.917 1.051v-.852h1.826v9.326h-1.826v-.854zm-27.64 37.295V0h1.042v63.953h-1.042zM37.334 23.493h-6.867l3.751-5.308h3.116v-2.309c0-6.635 4.039-12.117 11.425-12.117 1.73 0 2.943.288 3.693.577l-1.212 5.25a7.086 7.086 0 0 0-2.02-.288c-2.943 0-5.943 1.673-5.943 6.693v2.194h7.617v5.308h-7.617v24.12h-5.943v-24.12zm82.398 13.675V23.493h-6.289v-5.308h6.29V8.952l5.942-2.596v11.829h5.886l2.424 5.308h-8.31v13.56c0 4.04 2.54 5.597 5.425 5.597a12.19 12.19 0 0 0 2.712-.289l1.211 5.193c-1.154.347-2.596.577-4.328.577-7.04 0-10.963-4.557-10.963-10.963zM68.666 18.185h5.943v2.885c2.366-2.193 5.482-3.52 9.233-3.52 7.04 0 11.886 5.309 11.886 12.925v17.138h-3.173c-1.616 0-2.77-1.155-2.77-2.828V31.513c0-5.539-3-8.31-7.386-8.31-3.289 0-5.943 1.617-7.79 4.213v20.197h-5.943V18.185zm77.09 39.814c-.866 1.558-2.481 2.193-4.5 2.193h-3.232l9.867-18.003-11.31-24.004h3.116c1.962 0 3.52.519 4.27 2.077l7.328 15.752 8.483-15.752c.807-1.5 2.307-2.077 4.27-2.077h3.23l-21.522 39.814zm-90.13-10.386V18.185h5.943v29.428h-5.943zm47.142 0V18.185h5.943v29.428h-5.943zm-84.072-15.35L39.18 60.192h-4.5c-1.963 0-3.29-.693-4.27-2.078L15.003 36.822l-6.578 8.713c-1.038 1.385-2.308 2.078-4.27 2.078H0l11.368-15.35L.981 18.185h4.386c1.962 0 3.23.692 4.27 2.077l5.366 7.443 5.54-7.443c1.038-1.385 2.307-2.077 4.27-2.077h4.385L18.696 32.263z"/></svg>